Coordinates
version=1
nRows=9
nColumns=36
inDegrees=yes

Units are S.I. units (second, meters, Newtons, ...)
If the header above contains a line with 'inDegrees', this indicates whether rotational values are in degrees (yes) or radians (no).

endheader
time	pelvis_tilt	pelvis_list	pelvis_rotation	pelvis_tx	pelvis_ty	pelvis_tz	hip_flexion_r	hip_adduction_r	hip_rotation_r	knee_angle_r	knee_angle_r_beta	ankle_angle_r	subtalar_angle_r	mtp_angle_r	hip_flexion_l	hip_adduction_l	hip_rotation_l	knee_angle_l	knee_angle_l_beta	ankle_angle_l	subtalar_angle_l	mtp_angle_l	lumbar_extension	lumbar_bending	lumbar_rotation	arm_flex_r	arm_add_r	arm_rot_r	elbow_flex_r	pro_sup_r	arm_flex_l	arm_add_l	arm_rot_l	elbow_flex_l	pro_sup_l
      1.26666670	     -9.81591203	     -2.00754667	      5.56775918	     -0.95034916	      1.22043173	     -0.01045505	     16.27764970	      1.23807856	      0.84020883	      9.59532336	      0.16746999	      9.90127153	      4.17634469	     -7.49951698	     19.20190506	     -7.46171194	     -7.84730979	     18.32560848	      0.31984221	     19.86617436	      9.24388998	     -7.49951698	     21.31441837	      0.73069314	     -6.83294532	      2.17160140	    -23.00544896	     26.43755332	     35.70243215	     93.21734113	    -10.46085053	    -14.66193313	     26.16244372	     17.35888636	     95.37326439
      1.28333330	    -10.08980086	     -2.08797825	      5.71867015	     -0.95803933	      1.22808901	     -0.01484379	     16.60330832	      1.20811211	      0.81892421	      9.80986357	      0.17121442	     10.04506530	      3.85710330	     -7.49963391	     19.43276668	     -7.38341213	     -7.65707556	     17.98663281	      0.31392596	     19.77660211	      9.01863169	     -7.49963391	     21.70460062	      0.62222342	     -6.20135327	      1.37886551	    -23.31929408	     24.99094096	     36.64439128	     96.52812885	     -9.69803576	    -14.65186486	     26.84039199	     16.88696402	     99.62621139
      1.30000000	    -10.13295375	     -2.12005750	      5.83624989	     -0.95627467	      1.23071015	     -0.01462718	     16.69113933	      1.17313996	      0.82459476	      9.98790820	      0.17432188	     10.23924446	      3.55321287	     -7.49966499	     19.32006218	     -7.25563355	     -7.60670343	     17.55547751	      0.30640088	     19.75002354	      9.24964865	     -7.49966499	     21.69530931	      0.55279264	     -6.14762969	      1.16387501	    -23.76360876	     24.91835613	     37.89223682	     95.42532304	     -9.88007445	    -14.92777987	     26.83404980	     17.68080925	     98.42857886
      1.31666670	    -10.24383812	     -2.13191723	      5.90565872	     -0.95740299	      1.22737092	     -0.01501224	     16.94417709	      1.10721237	      0.84213729	     10.23708346	      0.17867081	     10.42988398	      3.33397217	     -7.49969685	     19.43956659	     -7.09835693	     -7.37976873	     17.30687488	      0.30206195	     19.72394535	      9.26770057	     -7.49969685	     21.77893189	      0.51364892	     -6.02452293	      1.14675139	    -24.29110318	     25.32764980	     38.88259470	     96.07885717	    -10.13728196	    -15.47576145	     27.54906214	     18.57595929	     98.58681497
      1.33333330	    -10.08313802	     -2.06431827	      6.01128013	     -0.94907238	      1.22854375	     -0.01958502	     16.70121254	      0.97710136	      0.99542332	     10.24883067	      0.17887584	     10.79603545	      3.07964805	     -7.49970749	     18.97266553	     -6.85307933	     -7.32197893	     16.81159783	      0.29341773	     19.67862181	      9.27222239	     -7.49970749	     21.69633904	      0.42970203	     -5.95331367	      0.86841372	    -24.74517178	     25.29927397	     39.98227743	     96.44682368	    -10.72815669	    -15.97843997	     27.75920721	     19.83504721	     98.76510027
      1.35000000	    -10.02009542	     -2.04881583	      6.17371541	     -0.95545024	      1.22412959	     -0.02388579	     16.71492740	      0.82213515	      0.98337506	     10.43504377	      0.18212587	     11.19756764	      3.14333762	     -7.49970534	     18.83540189	     -6.67809435	     -7.22911471	     16.57908350	      0.28935959	     19.77603806	      9.54575757	     -7.49970534	     21.58437210	      0.40712665	     -5.90313547	      0.63108412	    -25.26596258	     24.84691857	     41.19485725	     95.57968643	    -11.13800486	    -16.48972993	     27.87895837	     21.28534787	     97.62215704
      1.36666670	    -10.00008468	     -2.04837479	      6.35629572	     -0.95521848	      1.22400325	     -0.02381543	     16.73029393	      0.71182144	      1.30261574	     10.52972187	      0.18377832	     11.44431131	      2.50692329	     -7.49973153	     18.60759092	     -6.52046488	     -7.23903633	     16.26075101	      0.28380364	     19.57698200	      9.21657591	     -7.49973153	     21.69514682	      0.40140038	     -5.88797257	      0.46198679	    -25.94058708	     24.84643264	     42.20796332	     96.36761420	    -11.27222669	    -16.96497657	     29.34219640	     22.18913334	     97.60260351
      1.38333330	     -9.87948622	     -2.00139353	      6.53644414	     -0.94848002	      1.22203153	     -0.02922578	     16.51260434	      0.50992440	      1.38277561	     10.54078586	      0.18397142	     11.81633092	      2.32198281	     -7.49974436	     18.02567355	     -6.30563879	     -7.35003229	     15.72091921	      0.27438180	     19.44546531	      9.24144006	     -7.49974436	     21.65295359	      0.37570821	     -5.81165662	      0.08396109	    -26.59999391	     24.34697446	     43.32763109	     96.56385099	    -11.78239142	    -17.27287746	     29.26704882	     23.31354966	     97.21430520
      1.40000000	     -9.94083308	     -1.91730035	      6.62604093	     -0.95643053	      1.22736181	     -0.03284240	     16.74272953	      0.26676641	      1.49881358	     10.87902213	      0.18987476	     12.07768243	      2.27212200	     -7.49974960	     17.88059102	     -6.00381169	     -7.17256233	     15.25980171	      0.26633378	     19.51479111	      9.33568492	     -7.49974960	     21.74451469	      0.32083245	     -5.56498962	     -0.02143662	    -27.15636037	     24.23482485	     43.76155625	     96.62228264	    -11.80938115	    -17.50329035	     29.28941300	     24.04505730	     97.00968087
